# xmcd
#
# Track frame offsets:
#	150
#	16596
#	34097
#	51873
#	70884
#	93309
#	110782
#	126775
#	162621
#	182762
#	201776
#	219742
#	239570
#	260381
#	277071
#	294397
#
# Disc length: 4131 seconds
#
# Revision: 1835024
# Processed by: cddbd v1.5.2PL0 Copyright (c) Steve Scherf et al.
# Submitted via: EZCDAudioConverter 8.3.3.1
#
DISCID=f4102110
DTITLE=Сергей Бабкин - Ура!
DYEAR=2004
DGENRE=
TTITLE0=Track01 - A groovy kind of love
TTITLE1=Track02 - Warm your heart
TTITLE2=Track03 - Up where we belong
TTITLE3=Track04 - Back at one
TTITLE4=Track05 - Color of the wind
TTITLE5=Track06 - I swear
TTITLE6=Track07 - You will miss me
TTITLE7=Track08 - Joan of Arc
TTITLE8=Track09 - How do I live
TTITLE9=Track10 - Sitting on the dock of the bay
TTITLE10=Track11 - Every breath you take
TTITLE11=Track12 - I can love you like that
TTITLE12=Track13 - because you love me
TTITLE13=Track14 - When you say nothing at all
TTITLE14=Track15 - Now that i found you
TTITLE15=Track16 - Speaking with the angel
EXTD=
EXTT0=
EXTT1=
EXTT2=
EXTT3=
EXTT4=
EXTT5=
EXTT6=
EXTT7=
EXTT8=
EXTT9=
EXTT10=
EXTT11=
EXTT12=
EXTT13=
EXTT14=
EXTT15=
PLAYORDER=
